<svg xmlns="http://www.w3.org/2000/svg" viewBox="0 0 119 119" fill="#250047">
<g fill="none" stroke="#250047" stroke-width="6.25" stroke-linecap="round" stroke-linejoin="round">
<circle cx="61.152" cy="59.274" r="29.451"/>
</g>
<g fill="none" stroke="#250047" stroke-width="4.17" stroke-linecap="round" stroke-linejoin="round">
<path d="M52.726 31.086c-10.641-4.456-19.114-4.482-22.724-.07-6.138 7.499 3.34 25.421 21.151 39.998s37.254 20.322 43.392 12.822c3.519-4.3 1.996-12.302-4.106-21.575"/>
</g>
<path d="M87.413 10.073a2.084 2.084 0 0 1-1.96 3.677c-12.457-6.643-27.571-8.186-41.877-3.005-14.305 5.181-24.926 16.045-30.24 29.123a2.084 2.084 0 0 1-3.86-1.568c5.743-14.134 17.222-25.874 32.681-31.473 15.46-5.599 31.795-3.933 45.256 3.246M5.392 61.134a2.084 2.084 0 0 1 4.164-.139 51.5 51.5 0 0 0 3.067 15.855c8.447 23.324 32 36.856 55.632 33.557a2.084 2.084 0 0 1 .576 4.126c-25.54 3.566-50.996-11.056-60.126-36.264a55.7 55.7 0 0 1-3.313-17.135M90.64 106.635a2.084 2.084 0 0 1-2.2-3.539c20.264-12.598 29.689-38.074 21.242-61.398a51.5 51.5 0 0 0-7.797-14.141 2.084 2.084 0 0 1 3.287-2.561 55.7 55.7 0 0 1 8.428 15.283c9.129 25.208-1.06 52.74-22.96 66.356"/>
<circle cx="28.069" cy="34.499" r="6.496"/>
<circle cx="42.36" cy="63.111" r="6.496"/>
<circle cx="62.162" cy="78.485" r="6.496"/>
<circle cx="92.696" cy="85.979" r="6.496"/>
<circle cx="95.48" cy="18.363" r="6.496"/>
<circle cx="8.543" cy="49.998" r="6.496"/>
<circle cx="79.423" cy="109.476" r="6.496"/>
</svg>
